<?xml version="1.0" encoding="iso-8859-1"?>
<!-- Uploaded to: SVG Repo, www.svgrepo.com, Generator: SVG Repo Mixer Tools -->
<svg version="1.1" id="Layer_1" xmlns="http://www.w3.org/2000/svg" xmlns:xlink="http://www.w3.org/1999/xlink" 
	 viewBox="0 0 512.001 512.001" xml:space="preserve">
<rect x="43.44" y="30.49" style="fill:#889EBD;" width="329.028" height="473.485"/>
<rect x="372.475" y="22.466" style="fill:#95C11F;" width="32.1" height="489.535"/>
<rect x="405.066" y="22.466" style="fill:#889EBD;" width="32.1" height="489.535"/>
<rect x="437.656" y="22.466" style="fill:#AACD4C;" width="32.1" height="489.535"/>
<rect x="228.018" y="30.49" style="fill:#6A86AC;" width="144.457" height="473.485"/>
<g>
	<polygon style="fill:#1D1D1B;" points="412.408,511.811 388.522,511.811 388.522,496.137 396.735,496.137 396.735,38.329 
		388.522,38.329 388.522,22.655 412.408,22.655 	"/>
	<polygon style="fill:#1D1D1B;" points="444.263,511.811 420.376,511.811 420.376,496.137 428.589,496.137 428.589,38.329 
		420.376,38.329 420.376,22.655 444.263,22.655 	"/>
	<polygon style="fill:#1D1D1B;" points="476.398,511.811 452.51,511.811 452.51,496.137 460.724,496.137 460.724,38.329 
		452.51,38.329 452.51,22.655 476.398,22.655 	"/>
	<path style="fill:#1D1D1B;" d="M147.547,22.655C146.904,10.054,136.451,0,123.691,0s-23.212,10.054-23.855,22.655H35.603v489.156
		h344.704V22.655H147.547z M123.691,15.673c4.109,0,7.513,3.036,8.111,6.982H115.58C116.179,18.71,119.583,15.673,123.691,15.673z
		 M364.634,496.137H51.277V38.329h48.527v89.885c0,13.171,10.715,23.887,23.887,23.887s23.886-10.716,23.886-23.887V64.013h-15.673
		v64.201c0,4.53-3.684,8.214-8.213,8.214s-8.214-3.684-8.214-8.214V38.329h249.156v457.808H364.634z"/>
</g>
</svg>